# xmcd CD database file
#
# Track frame offsets:
#	150
#	24891
#	50596
#	71751
#	90775
#	115180
#	139345
#	154368
#	172657
#	186238
#	214309
#	235956
#	273827
#	301706
#	330996
#
# Disc length: 4801 seconds
#
# Revision: 1
# Processed by: cddbd v1.5.2PL0 Copyright (c) Steve Scherf et al.
# Submitted via: CDex 1.83
#
DISCID=c312bf0f
DTITLE=Teddy Edwards - Complete Recordings 1947-1962 CD04
DYEAR=2017
DGENRE=Jazz
TTITLE0=Good Gravy
TTITLE1=Could You Forget
TTITLE2=Stairway To The Stars
TTITLE3=A Little Later
TTITLE4=On Green Dolphin Street
TTITLE5=Just Friends
TTITLE6=Laura
TTITLE7=Yes, I'll Be Ready
TTITLE8=Not So Strange
TTITLE9=Smokin'
TTITLE10=No Regrets
TTITLE11=Secret Love
TTITLE12=Little Steddy
TTITLE13=Wiggin'
TTITLE14=A Bag Of Blues
EXTD=YEAR: 2017
EXTT0=
EXTT1=
EXTT2=
EXTT3=
EXTT4=
EXTT5=
EXTT6=
EXTT7=
EXTT8=
EXTT9=
EXTT10=
EXTT11=
EXTT12=
EXTT13=
EXTT14=
PLAYORDER=
